<?xml version="1.0" encoding="UTF-8"?>
<svg xmlns="http://www.w3.org/2000/svg" viewBox="0 0 1200 630" width="1200" height="630">
  <defs>
    <linearGradient id="g57181" x1="63.78186779084995%" y1="1.9369152030840553%" x2="36.21813220915005%" y2="98.06308479691594%">
      <stop offset="0%" stop-color="#1E40AF"/>
      <stop offset="100%" stop-color="#1E3A8A"/>
    </linearGradient>
  </defs>
  <rect width="1200" height="630" fill="url(#g57181)"/>
  <rect x="295.70389054715633" y="286.74972696229815" width="28" height="163.25027303770185" rx="3" fill="rgba(255,255,255,0.10294968804344534)"/><rect x="335.70389054715633" y="379.33539311401546" width="28" height="70.66460688598454" rx="3" fill="rgba(255,255,255,0.08724466955289245)"/><rect x="375.70389054715633" y="224.32086631655693" width="28" height="225.67913368344307" rx="3" fill="rgba(255,255,255,0.1366668969579041)"/><rect x="415.70389054715633" y="288.2282482087612" width="28" height="161.77175179123878" rx="3" fill="rgba(255,255,255,0.12627207199111581)"/><rect x="455.70389054715633" y="200.97601791843772" width="28" height="249.02398208156228" rx="3" fill="rgba(255,255,255,0.09627015693113208)"/><rect x="495.70389054715633" y="195.05364062264562" width="28" height="254.94635937735438" rx="3" fill="rgba(255,255,255,0.09545789422467352)"/><rect x="535.7038905471563" y="218.58963990584016" width="28" height="231.41036009415984" rx="3" fill="rgba(255,255,255,0.09384095760062336)"/><path d="M 600 432.193576998543 L 650 365.50377214094624 L 700 327.70527521381155 L 750 291.38252259697765 L 800 273.0532991036307 L 850 242.68322219722904 L 900 213.58138609444723 L 950 194.31964191491716 L 1000 165.64551329473034 L 1050 127.10763102862984 L 1100 97.18991682166234" fill="none" stroke="rgba(255,255,255,0.18)" stroke-width="2.5"/><text x="710.7445224188268" y="112.97448724508286" font-family="sans-serif" font-size="82.08312827628106" fill="rgba(255,255,255,0.04651250332128257)">£</text><text x="811.1521391198039" y="276.31633086130023" font-family="sans-serif" font-size="98.46687874756753" fill="rgba(255,255,255,0.10013740890426562)">¥</text><text x="512.1626813430339" y="239.14676359854639" font-family="sans-serif" font-size="95.5625289445743" fill="rgba(255,255,255,0.04855038868030533)">₹</text><text x="1069.5453874301165" y="184.48987822048366" font-family="sans-serif" font-size="75.18217204138637" fill="rgba(255,255,255,0.05763311601243913)">¥</text><text x="1086.669616540894" y="177.02363301068544" font-family="sans-serif" font-size="72.87745117209852" fill="rgba(255,255,255,0.07942604740383104)">¥</text><circle cx="994.3449568818323" cy="262.12343003600836" r="60.123802782036364" fill="none" stroke="rgba(255,255,255,0.1)" stroke-width="2"/><line x1="994.3449568818323" y1="262.12343003600836" x2="960.5209131687536" y2="212.41623007595283" stroke="rgba(255,255,255,0.1)" stroke-width="2"/><line x1="994.3449568818323" y1="262.12343003600836" x2="985.0642408488096" y2="321.52662835804824" stroke="rgba(255,255,255,0.1)" stroke-width="2"/><line x1="994.3449568818323" y1="262.12343003600836" x2="935.3479349337334" y2="250.53796231870223" stroke="rgba(255,255,255,0.1)" stroke-width="2"/>
  <circle cx="379.52115358784795" cy="462.26510708453134" r="1.2416467959992588" fill="rgba(255,255,255,0.07665620361920447)"/><circle cx="711.7867022752762" cy="354.11712370812893" r="2.127144851256162" fill="rgba(255,255,255,0.06494432984152809)"/><circle cx="584.1175708919764" cy="115.77858211705461" r="2.4341795700602233" fill="rgba(255,255,255,0.06530959665076808)"/><circle cx="757.9190033487976" cy="45.25765475817025" r="1.8109800866805017" fill="rgba(255,255,255,0.05875106619903818)"/><circle cx="83.76009212806821" cy="410.24704525480047" r="1.4095099470578134" fill="rgba(255,255,255,0.07654470959212631)"/><circle cx="1195.2274379320443" cy="201.61321694031358" r="1.0133171514607966" fill="rgba(255,255,255,0.040452860966324805)"/><circle cx="490.24784099310637" cy="610.3755375905894" r="1.525469179265201" fill="rgba(255,255,255,0.07773213545558974)"/><circle cx="1186.5502210333943" cy="287.52958399476483" r="2.458713449537754" fill="rgba(255,255,255,0.06397506572073325)"/><circle cx="765.4050780460238" cy="521.4935566554777" r="1.4469293411821127" fill="rgba(255,255,255,0.055570694892667236)"/><circle cx="864.5460234023631" cy="208.89156877761707" r="1.2200568062253296" fill="rgba(255,255,255,0.04096388922305778)"/><circle cx="172.1592248417437" cy="463.642917748075" r="1.751566727180034" fill="rgba(255,255,255,0.07302257420495153)"/><circle cx="1044.4841950200498" cy="408.6558495461941" r="1.7295643729157746" fill="rgba(255,255,255,0.06035976340761408)"/><circle cx="903.3836765214801" cy="148.37173845386133" r="1.5909003298729658" fill="rgba(255,255,255,0.047935332737397404)"/><circle cx="2.2077796049416065" cy="621.0619751131162" r="1.0256868130527437" fill="rgba(255,255,255,0.06640885506756604)"/><circle cx="528.508269879967" cy="237.85006946185604" r="1.3459569024853408" fill="rgba(255,255,255,0.06972500626696274)"/><circle cx="895.72439705953" cy="73.48846367094666" r="2.5925327744334936" fill="rgba(255,255,255,0.06317528573097661)"/><circle cx="271.7123284935951" cy="431.05981479166076" r="1.768704853951931" fill="rgba(255,255,255,0.044506760099902745)"/><circle cx="757.1591475047171" cy="465.4770315717906" r="2.4151039216667414" fill="rgba(255,255,255,0.07151237985352055)"/><circle cx="168.94883131608367" cy="393.48618435440585" r="1.8645726684480906" fill="rgba(255,255,255,0.0536408316064626)"/><circle cx="136.0880789346993" cy="6.483738741371781" r="2.5461092619225383" fill="rgba(255,255,255,0.07711310681886971)"/>
  <text x="600" y="335" font-family="system-ui, -apple-system, 'Segoe UI', sans-serif" font-size="68" font-weight="700" fill="rgba(0,0,0,0.15)" text-anchor="middle" letter-spacing="1">CMAT</text>
  <text x="600" y="332" font-family="system-ui, -apple-system, 'Segoe UI', sans-serif" font-size="68" font-weight="700" fill="white" text-anchor="middle" letter-spacing="1">CMAT</text>
  <g transform="translate(1140, 575)">
    <rect x="0" y="0" width="40" height="40" rx="8" fill="rgba(255,255,255,0.15)"/>
    <text x="20" y="29" font-family="sans-serif" font-weight="bold" font-size="24" fill="rgba(255,255,255,0.6)" text-anchor="middle">K</text>
  </g>
</svg>